<svg xmlns="http://www.w3.org/2000/svg"  viewBox="0 0 72 72" width="256px" height="256px"><path d="M 17.837891 12 C 14.650891 12 12.066406 14.584484 12.066406 17.771484 L 12.066406 29.121094 C 12.066406 30.651094 12.543125 31.891313 13.203125 32.820312 L 13.203125 33.369141 C 12.543125 34.298141 12.066406 35.538359 12.066406 37.068359 L 12.066406 40.474609 C 12.066406 42.004609 12.543125 43.242875 13.203125 44.171875 L 13.203125 44.720703 C 12.543125 45.648703 12.066406 46.889922 12.066406 48.419922 L 12.066406 54.095703 C 12.066406 57.282703 14.650891 59.865234 17.837891 59.865234 L 29.050781 59.865234 C 29.981781 60.514234 31.191703 61 32.595703 61 L 37.134766 61 C 38.665766 61 39.867656 60.455281 40.722656 59.863281 L 43.947266 59.863281 C 45.010266 59.863281 45.933984 59.634437 46.708984 59.273438 L 46.861328 59.273438 C 47.636328 59.634438 48.560047 59.863281 49.623047 59.863281 C 50.775047 59.863281 51.762172 59.594687 52.576172 59.179688 L 53.861328 59.632812 C 55.253328 60.081813 57.016391 59.766813 58.150391 58.882812 C 59.283391 57.998813 59.933594 56.666516 59.933594 55.228516 L 59.933594 39.330078 C 59.933594 38.404078 59.564203 37.514328 58.908203 36.861328 L 58.798828 36.751953 L 58.798828 33.662109 C 58.798828 33.263109 58.729609 32.87 58.599609 32.5 L 58.521484 32.298828 L 59.345703 31.0625 C 59.728703 30.4875 59.933594 29.812094 59.933594 29.121094 L 59.933594 17.771484 C 59.933594 14.584484 57.349109 12 54.162109 12 L 50.757812 12 C 49.445813 12 48.348562 12.348281 47.476562 12.863281 L 45.072266 12.382812 C 43.592266 12.087812 42.090922 12.314234 40.794922 12.990234 L 40.613281 12.990234 C 39.712281 12.411234 38.544766 12 37.134766 12 L 31.458984 12 C 30.131984 12 29.025437 12.357812 28.148438 12.882812 L 27.958984 12.882812 C 27.082984 12.357813 25.975437 12 24.648438 12 L 17.837891 12 z M 19.566406 19 L 24.136719 19 C 24.266719 19 24.387469 19.055484 24.480469 19.146484 C 25.123469 19.770484 25.992969 20.134766 26.917969 20.134766 L 29.189453 20.134766 C 30.115453 20.134766 30.984953 19.770484 31.626953 19.146484 C 31.720953 19.055484 31.842656 19 31.972656 19 L 36.623047 19 C 36.753047 19 36.87475 19.054484 36.96875 19.146484 C 37.61175 19.770484 38.48125 20.136719 39.40625 20.136719 L 43.066406 20.136719 C 43.280406 20.136719 43.495969 20.007828 43.542969 19.798828 C 43.611969 19.490828 43.893922 19.286797 44.169922 19.341797 L 47.800781 20.068359 C 48.957781 20.298359 50.118734 19.931531 50.927734 19.144531 C 51.020734 19.054531 51.140531 19 51.269531 19 L 52.433594 19 C 52.709594 19 52.933594 19.224 52.933594 19.5 L 52.933594 28.0625 L 49.886719 32.632812 C 49.753719 32.830813 49.778266 33.094672 49.947266 33.263672 L 51.796875 35.111328 L 51.796875 39.449219 C 51.796875 39.582219 51.849359 39.710687 51.943359 39.804688 L 52.933594 40.787109 L 52.933594 51.869141 C 52.933594 51.985141 52.906562 52.070047 52.851562 52.123047 C 52.790562 52.181047 52.695453 52.199875 52.564453 52.171875 L 51.671875 52.005859 C 51.008875 51.917859 50.384875 52.019937 49.921875 52.335938 C 49.837875 52.392938 49.744391 52.452031 49.650391 52.457031 C 49.537391 52.464031 49.423266 52.404938 49.322266 52.335938 C 48.752266 51.947938 48.067563 51.728516 47.351562 51.728516 L 46.216797 51.728516 C 45.290797 51.728516 44.420344 52.09475 43.777344 52.71875 C 43.684344 52.80975 43.563594 52.865234 43.433594 52.865234 L 39.40625 52.865234 C 38.43225 52.865234 37.580266 53.172891 36.947266 53.837891 C 36.852266 53.936891 36.726844 54 36.589844 54 L 33.183594 54 C 33.053594 54 32.932844 53.945563 32.839844 53.851562 C 32.192844 53.223563 31.319391 52.861328 30.400391 52.861328 L 19.566406 52.861328 C 19.290406 52.861328 19.066406 52.637328 19.066406 52.361328 L 19.066406 48.929688 C 19.066406 48.799687 19.121891 48.678938 19.212891 48.585938 C 19.836891 47.942937 20.203125 47.072484 20.203125 46.146484 L 20.203125 42.740234 C 20.203125 41.814234 19.836891 40.945734 19.212891 40.302734 C 19.121891 40.209734 19.066406 40.087031 19.066406 39.957031 L 19.066406 37.578125 C 19.066406 37.448125 19.121891 37.327375 19.212891 37.234375 C 19.836891 36.591375 20.203125 35.722875 20.203125 34.796875 L 20.203125 31.390625 C 20.203125 30.464625 19.836891 29.594172 19.212891 28.951172 C 19.121891 28.858172 19.066406 28.737422 19.066406 28.607422 L 19.066406 19.5 C 19.066406 19.224 19.290406 19 19.566406 19 z M 26.003906 24.001953 C 25.835031 23.994578 25.664766 24.029422 25.509766 24.107422 L 23.505859 25.109375 C 23.228859 25.248375 23.030656 25.507547 22.972656 25.810547 C 22.914656 26.113547 23.002938 26.424297 23.210938 26.654297 L 40.240234 47.667969 C 40.430234 47.879969 40.702328 47.998047 40.986328 47.998047 L 44.994141 47.998047 C 45.442141 47.998047 45.834031 47.704297 45.957031 47.279297 L 47.962891 40.337891 C 48.085891 39.910891 47.906391 39.455656 47.525391 39.222656 L 26.488281 24.150391 C 26.339781 24.058891 26.172781 24.009328 26.003906 24.001953 z M 43.5 25.001953 C 43.346375 24.992578 43.189375 25.021797 43.046875 25.091797 L 39.492188 26.841797 C 39.209188 26.981797 39.022906 27.259313 39.003906 27.570312 C 38.981906 27.882312 39.131531 28.180516 39.394531 28.353516 L 44.728516 31.853516 C 44.877516 31.950516 45.047703 32 45.220703 32 C 45.329703 32 45.439016 31.980453 45.541016 31.939453 C 45.811016 31.836453 46.011031 31.612891 46.082031 31.337891 L 46.972656 27.837891 C 47.064656 27.478891 46.915516 27.101484 46.603516 26.896484 L 43.9375 25.146484 C 43.8045 25.058984 43.653625 25.011328 43.5 25.001953 z M 26.742188 39 C 26.66825 38.996563 26.594031 39.002578 26.519531 39.017578 C 26.223531 39.078578 25.975281 39.284453 25.863281 39.564453 L 24.064453 44.064453 C 23.913453 44.442453 24.033375 44.875141 24.359375 45.119141 L 27.960938 47.818359 C 28.119938 47.938359 28.309 48 28.5 48 C 28.637 48 28.775344 47.96825 28.902344 47.90625 L 32.503906 46.105469 C 32.762906 45.975469 32.942281 45.729359 32.988281 45.443359 C 33.034281 45.157359 32.941328 44.867109 32.736328 44.662109 L 27.337891 39.263672 C 27.177391 39.103172 26.964 39.010312 26.742188 39 z"/></svg>